
EXCLUSIVE DHAMAKA FROM Henry


----------------------------------------------------------------------------------
Format                           : Matroska
File size                        : 398 MiB
Duration                         : 1h 55mn
Overall bit rate                 : 483 Kbps
Movie name                       : Phas Gaye Re Obema 2010 DVDScr x264 - Henry Kharay
Encoded date                     : UTC 2010-12-05 16:46:37
Writing application              : mkvmerge v4.2.0 ('No Talking') built on Jul 28 2010 18:38:23
Writing library                  : libebml v1.0.0 + libmatroska v1.0.0
-----------------------------------------------------------------------------------
Video
ID                               : 1
Format                           : AVC
Format/Info                      : Advanced Video Codec
Format profile                   : High@L2.1
Format settings, CABAC           : Yes
Format settings, ReFrames        : 4 frames
Muxing mode                      : Container profile=Unknown@2.1
Codec ID                         : V_MPEG4/ISO/AVC
Duration                         : 1h 55mn
Bit rate                         : 391 Kbps
Width                            : 640 pixels
Height                           : 272 pixels
Display aspect ratio             : 2.35:1
Frame rate                       : 23.976 fps
Color space                      : YUV
Chroma subsampling               : 4:2:0
Bit depth                        : 8 bits
Scan type                        : Progressive
Bits/(Pixel*Frame)               : 0.094
Stream size                      : 315 MiB (79%)
Writing library                  : x264 
-----------------------------------------------------------------------------------
Audio
ID                               : 2
Format                           : MPEG Audio
Format version                   : Version 2
Format profile                   : Layer 3
Mode                             : Joint stereo
Mode extension                   : MS Stereo
Codec ID                         : A_MPEG/L3
Codec ID/Hint                    : MP3
Duration                         : 1h 55mn
Bit rate mode                    : Variable
Bit rate                         : 90.3 Kbps
Nominal bit rate                 : 128 Kbps
Channel(s)                       : 2 channels
Sampling rate                    : 24.0 KHz
Stream size                      : 74.4 MiB (19%)
Writing library                  : LAME3.98r
Encoding settings                : -m j -V 4 -q 2 -lowpass 12 --abr 128

Screens: 
http://bapugunda.com/images.php?i=4163_2.png 
http://bapugunda.com/images.php?i=4160_5.png 
http://bapugunda.com/images.php?i=4158_7.png 
http://bapugunda.com/images.php?i=4162_3.png 
http://bapugunda.com/images.php?i=4164_1.png 
http://bapugunda.com/images.php?i=4161_4.png

Sample Include In Torrent

Keep Seeding
thnx